# xmcd CD database file
#
# Track frame offsets:
#	150
#	26758
#	40988
#	72391
#	107758
#	124069
#	147138
#
# Disc length: 2369 seconds
#
# Revision: 1
# Processed by: cddbd v1.5.2PL0 Copyright (c) Steve Scherf et al.
# Submitted via: CDex 1.51
#
DISCID=62093f07
DTITLE=Cafe R&B - Very Live: Disc 1
DYEAR=2005
DGENRE=Blues
TTITLE0=Born Under A Bad Sign
TTITLE1=Black Cat Blues
TTITLE2=Smile At Me
TTITLE3=Snatch It Back And Hold It
TTITLE4=Since I Fell For You
TTITLE5=Shake For Me
TTITLE6=Gypsy Woman
EXTD=YEAR: 2005
EXTT0=
EXTT1=
EXTT2=
EXTT3=
EXTT4=
EXTT5=
EXTT6=
PLAYORDER=
